<?xml version="1.0" encoding="UTF-8"?>
<!DOCTYPE svg PUBLIC "-//W3C//DTD SVG 1.1//EN" "http://www.w3.org/Graphics/SVG/1.1/DTD/svg11.dtd">
<!-- Creator: CorelDRAW -->
<svg xmlns="http://www.w3.org/2000/svg" xml:space="preserve" width="2.982mm" height="1.8421mm" version="1.1" style="shape-rendering:geometricPrecision; text-rendering:geometricPrecision; image-rendering:optimizeQuality; fill-rule:evenodd; clip-rule:evenodd"
viewBox="0 0 55.69 34.4"
 xmlns:xlink="http://www.w3.org/1999/xlink"
 xmlns:xodm="http://www.corel.com/coreldraw/odm/2003">
 <defs>
  <style type="text/css">
   <![CDATA[
    .fil0 {fill:#373435}
    .fil1 {fill:#373435;fill-rule:nonzero}
   ]]>
  </style>
 </defs>
 <g id="Layer_x0020_1">
  <metadata id="CorelCorpID_0Corel-Layer"/>
  <g>
   <polygon class="fil0" points="46.52,10.16 46.52,32.82 9.17,32.82 9.17,10.16 13.84,5.87 18.51,1.58 27.85,1.58 37.19,1.58 41.85,5.87 "/>
   <path id="_1" class="fil0" d="M48.11 10.16l0 22.66c0,0.87 -0.71,1.58 -1.58,1.58l-37.35 0c-0.87,0 -1.58,-0.71 -1.58,-1.58l0 -22.66c0,-0.49 0.23,-0.94 0.58,-1.23l4.6 -4.22 4.67 -4.29c0.3,-0.28 0.69,-0.41 1.07,-0.41l0 -0.01 9.34 0 9.34 0c0.45,0 0.85,0.18 1.14,0.48l4.6 4.23 4.67 4.29c0.34,0.31 0.51,0.74 0.51,1.16l0.01 0zm-1.58 0l0 22.66 -37.35 0 0 -22.66 4.67 -4.29 4.67 -4.29 9.34 0 9.34 0 4.67 4.29 4.67 4.29z"/>
  </g>
  <g id="_2425473924016">
   <g>
    <path class="fil1" d="M6.33 29.48c0,1.75 -1.42,3.16 -3.16,3.16 -1.75,0 -3.16,-1.42 -3.16,-3.16l6.33 0zm0 -13.06l0 13.06 -6.33 0 0 -13.06 6.33 0zm-6.33 0c0,-1.75 1.42,-3.16 3.16,-3.16 1.75,0 3.16,1.42 3.16,3.16l-6.33 0z"/>
   </g>
   <g>
    <path class="fil1" d="M55.69 29.48c0,1.75 -1.42,3.16 -3.16,3.16 -1.75,0 -3.16,-1.42 -3.16,-3.16l6.33 0zm0 -13.06l0 13.06 -6.33 0 0 -13.06 6.33 0zm-6.33 0c0,-1.75 1.42,-3.16 3.16,-3.16 1.75,0 3.16,1.42 3.16,3.16l-6.33 0z"/>
   </g>
  </g>
 </g>
</svg>
